<mxfile host="app.diagrams.net" agent="Mozilla/5.0 (Windows NT 10.0; Win64; x64) AppleWebKit/537.36 (KHTML, like Gecko) Chrome/130.0.0.0 Safari/537.36" version="24.8.3">
  <diagram name="第 1 页" id="AF7Ue8Hxm1wPqUZRAzeQ">
    <mxGraphModel dx="1584" dy="604" grid="0" gridSize="10" guides="1" tooltips="1" connect="1" arrows="1" fold="1" page="0" pageScale="1" pageWidth="827" pageHeight="1169" math="0" shadow="0">
      <root>
        <mxCell id="0" />
        <mxCell id="1" parent="0" />
        <mxCell id="k5SlWRVh9dKqzkCyvaQE-14" value="" style="rounded=1;whiteSpace=wrap;html=1;" vertex="1" parent="1">
          <mxGeometry x="-42" y="94" width="850" height="545" as="geometry" />
        </mxCell>
        <mxCell id="k5SlWRVh9dKqzkCyvaQE-15" value="ZLToolKit" style="rounded=0;whiteSpace=wrap;html=1;" vertex="1" parent="1">
          <mxGeometry x="165.9623188405797" y="126.41096281853024" width="104.05797101449276" height="45.60730854568682" as="geometry" />
        </mxCell>
        <mxCell id="k5SlWRVh9dKqzkCyvaQE-22" value="" style="rounded=1;whiteSpace=wrap;html=1;dashed=1;dashPattern=8 8;" vertex="1" parent="1">
          <mxGeometry x="243" y="256.96" width="453" height="293.04" as="geometry" />
        </mxCell>
        <mxCell id="k5SlWRVh9dKqzkCyvaQE-6" value="libflv" style="rounded=0;whiteSpace=wrap;html=1;" vertex="1" parent="1">
          <mxGeometry x="559.7934827383057" y="299.71873529214014" width="104.22717096736189" height="45.60730854568682" as="geometry" />
        </mxCell>
        <mxCell id="k5SlWRVh9dKqzkCyvaQE-7" value="libmkv" style="rounded=0;whiteSpace=wrap;html=1;" vertex="1" parent="1">
          <mxGeometry x="256.4924152232827" y="441.10139178376926" width="104.22717096736189" height="45.60730854568682" as="geometry" />
        </mxCell>
        <mxCell id="k5SlWRVh9dKqzkCyvaQE-8" value="libhls" style="rounded=0;whiteSpace=wrap;html=1;" vertex="1" parent="1">
          <mxGeometry x="403.452726287263" y="441.10139178376926" width="104.22717096736189" height="45.60730854568682" as="geometry" />
        </mxCell>
        <mxCell id="k5SlWRVh9dKqzkCyvaQE-9" value="libmov" style="rounded=0;whiteSpace=wrap;html=1;" vertex="1" parent="1">
          <mxGeometry x="490.99901727011076" y="497.99672191218986" width="104.22717096736189" height="45.60730854568682" as="geometry" />
        </mxCell>
        <mxCell id="k5SlWRVh9dKqzkCyvaQE-10" value="libmpeg" style="rounded=0;whiteSpace=wrap;html=1;" vertex="1" parent="1">
          <mxGeometry x="559.7934827383057" y="376.11097710616554" width="104.22717096736189" height="45.60730854568682" as="geometry" />
        </mxCell>
        <mxCell id="k5SlWRVh9dKqzkCyvaQE-11" value="librtmp" style="rounded=0;whiteSpace=wrap;html=1;" vertex="1" parent="1">
          <mxGeometry x="403.452726287263" y="382.9520733880186" width="104.22717096736189" height="45.60730854568682" as="geometry" />
        </mxCell>
        <mxCell id="k5SlWRVh9dKqzkCyvaQE-12" value="librtp" style="rounded=0;whiteSpace=wrap;html=1;" vertex="1" parent="1">
          <mxGeometry x="256.4924152232827" y="384.0922561016607" width="104.22717096736189" height="45.60730854568682" as="geometry" />
        </mxCell>
        <mxCell id="k5SlWRVh9dKqzkCyvaQE-13" value="librtsp" style="rounded=0;whiteSpace=wrap;html=1;" vertex="1" parent="1">
          <mxGeometry x="559.7934827383057" y="434.2602955019163" width="104.22717096736189" height="45.60730854568682" as="geometry" />
        </mxCell>
        <mxCell id="k5SlWRVh9dKqzkCyvaQE-26" value="media-server" style="text;html=1;align=center;verticalAlign=middle;whiteSpace=wrap;rounded=0;" vertex="1" parent="1">
          <mxGeometry x="385.52463768115945" y="257.5319748873798" width="141.51884057971014" height="31.92511598198077" as="geometry" />
        </mxCell>
        <mxCell id="k5SlWRVh9dKqzkCyvaQE-4" value="libsip" style="rounded=0;whiteSpace=wrap;html=1;" vertex="1" parent="1">
          <mxGeometry x="256.4924152232827" y="306.55983157399316" width="104.22717096736189" height="45.60730854568682" as="geometry" />
        </mxCell>
        <mxCell id="k5SlWRVh9dKqzkCyvaQE-5" value="libdash" style="rounded=0;whiteSpace=wrap;html=1;" vertex="1" parent="1">
          <mxGeometry x="403.452726287263" y="306.55983157399316" width="104.22717096736189" height="45.60730854568682" as="geometry" />
        </mxCell>
      </root>
    </mxGraphModel>
  </diagram>
</mxfile>
